Pearl Jam Shows in Italy From September 2006. Shot In Hi-Def By Noted Photographer Danny Clinch,
DVD Gives An Intimate Look At Pearl Jam's Amazing Live Performances And Behind-The-Scenes Footage From The Tour. Concerts were shot partially in hi-def in Bologna, Verona, Milan, Torino, and Pistoia, Italy in September 2006. DVD captures Pearl Jam's phenomenal live performances, as well as exclusive behind-the scenes footage of the band on tour.Directed by renowned photographer/filmmaker Danny Clinch and produced by Lindha Narvaez. Stereo and 5.1 music mixed byBrett Eliason and recorded by John Burton.DVD concert highlights encompass standout songs from their 2006 Billboard #2 album Pearl Jam,including Severed Hand, Life Wasted, and World Wide Suicide. 
Plus prime stage versions of Pearl Jam classics Corduroy, Even Flow, Comatose, Porch, Better
Man, and Neil Young s Rockin In The Free World.     

Performance Listing:
01. Severed Hand
02. World Wide Suicide
03. Life Wasted
04. Corduroy
05. State of Love and Trust
06. Porch
07. Even Flow
08. Better Man
09. Alive
10. Blood
11. Comatose
12. Come Back
13. RockinΓÇÖ in the Free World
INFO: 
Format                                   : MPEG-4
Format profile                           : Base Media
Codec ID                                 : isom
File size                                : 1.45 GiB
Duration                                 : 1h 32mn
Overall bit rate mode                    : Variable
Overall bit rate                         : 2 242 Kbps
Writing application                      : Lavf52.104.0

Video
ID                                       : 1
Format                                   : MPEG-4 Visual
Format profile                           : Simple@L3
Format settings, BVOP                    : No
Format settings, QPel                    : No
Format settings, GMC                     : No warppoints
Format settings, Matrix                  : Default (H.263)
Codec ID                                 : 20
Duration                                 : 1h 32mn
Bit rate                                 : 2 069 Kbps
Width                                    : 720 pixels
Height                                   : 480 pixels
Display aspect ratio                     : 16:9
Original display aspect ratio            : 16:9
Frame rate mode                          : Constant
Frame rate                               : 29.970 fps
Standard                                 : NTSC
Color space                              : YUV
Chroma subsampling                       : 4:2:0
Bit depth                                : 8 bits
Scan type                                : Progressive
Compression mode                         : Lossy
Bits/(Pixel*Frame)                       : 0.200
Stream size                              : 1.34 GiB (92%)
Writing library                          : XviD 1.2.1 (UTC 2008-12-04)

Audio
ID                                       : 2
Format                                   : AAC
Format/Info                              : Advanced Audio Codec
Format profile                           : LC
Codec ID                                 : 40
Duration                                 : 1h 32mn
Bit rate mode                            : Variable
Bit rate                                 : 168 Kbps
Channel(s)                               : 6 channels
Channel positions                        : Front: L C R, Side: L R, LFE
Sampling rate                            : 48.0 KHz
Compression mode                         : Lossy
Stream size                              : 111 MiB (7%)

SIZE: 1.44GB  
